name rise31.4854peak64.571fall78.6902.mot
datacolumns 19
datarows 12
range 17.01826900000000 17.03660700000000
endheader
time	ground_force1_vx	ground_force1_vy	ground_force1_vz	ground_force1_px	ground_force1_py	ground_force1_pz	ground_force2_vx	ground_force2_vy	ground_force2_vz	ground_force2_px	ground_force2_py	ground_force2_pz	ground_torque1_x	ground_torque1_y	ground_torque1_z	ground_torque2_x	ground_torque2_y	ground_torque2_z	
17.01826900000000	15.14136800000000	688.90235099999995	40.76461600000000	0.23457800000000	0.00000000000000	0.10848900000000	0.00000000000000	0.00000000000000	0.00000000000000	0.00000000000000	0.00000000000000	0.00000000000000	0.00000000000000	15.80864000000000	0.00000000000000	0.00000000000000	0.00000000000000	0.00000000000000	
17.01993300000000	14.71455900000000	689.97574999999995	40.78895600000000	0.23376600000000	0.00000000000000	0.10845500000000	0.00000000000000	0.00000000000000	0.00000000000000	0.00000000000000	0.00000000000000	0.00000000000000	0.00000000000000	15.88568800000000	0.00000000000000	0.00000000000000	0.00000000000000	0.00000000000000	
17.02159900000000	14.27003700000000	691.08341800000005	40.81690300000000	0.23292100000000	0.00000000000000	0.10842200000000	0.00000000000000	0.00000000000000	0.00000000000000	0.00000000000000	0.00000000000000	0.00000000000000	0.00000000000000	15.96725600000000	0.00000000000000	0.00000000000000	0.00000000000000	0.00000000000000	
17.02327100000000	13.80764700000000	692.22437400000001	40.84816400000000	0.23204300000000	0.00000000000000	0.10839200000000	0.00000000000000	0.00000000000000	0.00000000000000	0.00000000000000	0.00000000000000	0.00000000000000	0.00000000000000	16.05317600000000	0.00000000000000	0.00000000000000	0.00000000000000	0.00000000000000	
17.02493600000000	13.32729500000000	693.39768800000002	40.88245800000000	0.23113000000000	0.00000000000000	0.10836300000000	0.00000000000000	0.00000000000000	0.00000000000000	0.00000000000000	0.00000000000000	0.00000000000000	0.00000000000000	16.14328100000000	0.00000000000000	0.00000000000000	0.00000000000000	0.00000000000000	
17.02660200000000	12.82894200000000	694.60248000000001	40.91950900000000	0.23018300000000	0.00000000000000	0.10833700000000	0.00000000000000	0.00000000000000	0.00000000000000	0.00000000000000	0.00000000000000	0.00000000000000	0.00000000000000	16.23740500000000	0.00000000000000	0.00000000000000	0.00000000000000	0.00000000000000	
17.02826800000000	12.31261200000000	695.83792500000004	40.95905300000000	0.22920100000000	0.00000000000000	0.10831200000000	0.00000000000000	0.00000000000000	0.00000000000000	0.00000000000000	0.00000000000000	0.00000000000000	0.00000000000000	16.33538600000000	0.00000000000000	0.00000000000000	0.00000000000000	0.00000000000000	
17.02993800000000	11.77838700000000	697.10324900000001	41.00083700000000	0.22818700000000	0.00000000000000	0.10828900000000	0.00000000000000	0.00000000000000	0.00000000000000	0.00000000000000	0.00000000000000	0.00000000000000	0.00000000000000	16.43706200000000	0.00000000000000	0.00000000000000	0.00000000000000	0.00000000000000	
17.03160300000000	11.22640400000000	698.39772900000003	41.04462100000000	0.22713900000000	0.00000000000000	0.10826800000000	0.00000000000000	0.00000000000000	0.00000000000000	0.00000000000000	0.00000000000000	0.00000000000000	0.00000000000000	16.54227800000000	0.00000000000000	0.00000000000000	0.00000000000000	0.00000000000000	
17.03327600000000	10.65685700000000	699.72069699999997	41.09017800000000	0.22605900000000	0.00000000000000	0.10824800000000	0.00000000000000	0.00000000000000	0.00000000000000	0.00000000000000	0.00000000000000	0.00000000000000	0.00000000000000	16.65087800000000	0.00000000000000	0.00000000000000	0.00000000000000	0.00000000000000	
17.03493500000000	10.06999700000000	701.07152900000006	41.13729600000000	0.22494700000000	0.00000000000000	0.10823000000000	0.00000000000000	0.00000000000000	0.00000000000000	0.00000000000000	0.00000000000000	0.00000000000000	0.00000000000000	16.76271400000000	0.00000000000000	0.00000000000000	0.00000000000000	0.00000000000000	
17.03660700000000	9.46612600000000	702.44965600000000	41.18577900000000	0.22380600000000	0.00000000000000	0.10821400000000	0.00000000000000	0.00000000000000	0.00000000000000	0.00000000000000	0.00000000000000	0.00000000000000	0.00000000000000	16.87763800000000	0.00000000000000	0.00000000000000	0.00000000000000	0.00000000000000	
